<?xml version="1.0" encoding="utf-8"?>
<!-- Generator: Adobe Illustrator 27.5.0, SVG Export Plug-In . SVG Version: 6.00 Build 0)  -->
<svg version="1.1" id="Calque_1" xmlns="http://www.w3.org/2000/svg" xmlns:xlink="http://www.w3.org/1999/xlink" x="0px" y="0px"
	 viewBox="0 0 800 800" style="enable-background:new 0 0 800 800;" xml:space="preserve">
<style type="text/css">
	.st0{fill:#F6D406;}
	.st1{fill:#FFFFFF;}
</style>
<g>
	<path class="st0" d="M660,528c-6.2-1.9-13.7-6-16.4-8.9c-2.9-3-3-3.6-4.3-18.8c-0.8-8.7-2.5-26.8-3.8-40.3
		c-4-40.5-4.8-61-3.8-108.1c0.8-42.6,0.8-42.6,3.6-46.7c1.5-2.4,3.8-4.4,5.3-4.8c3.1-0.8,9.9,0.1,17.6,2.2c5.1,1.5,6.1,2.2,8.8,6.4
		c5.8,9,7.2,10,12.8,9.3c7.5-0.8,11.3,0.9,18.3,8.5c16.8,18.3,17.9,38.3,3,53c-2.6,2.6-5.8,5.4-7.2,6.3c-2.4,1.7-2.4,1.7,0.4,7.5
		c1.6,3.3,5.3,9.7,8.2,14.4c2.9,4.7,7.9,13,11.1,18.5c3.2,5.5,8.4,13.8,11.5,18.5s10,15,15.4,23c14.7,22,16.2,25.5,14.7,35.9
		c-0.7,5.1-0.9,5.5-4.3,6.7c-3.7,1.2-3.7,1.2-9.1-4.9c-3-3.4-7.4-9.1-9.8-12.7c-2.4-3.6-6.7-9.2-9.5-12.5
		c-12.2-14.3-31.9-42.4-39.1-56c-2.5-4.7-4.9-8.7-5.4-9c-1.7-1.1-2.6,14-3.5,62c-0.6,27.8-0.9,32.9-2.6,38.9
		c-1.3,4.4-3.1,7.9-4.9,9.8C664,529.2,663.8,529.2,660,528L660,528z M688.2,374.8c2.7-1.7,6.1-4.7,7.6-6.6c2.5-3.2,2.7-4.3,2.6-12.1
		c0-7.6-0.4-9.4-3.2-15.3c-5.7-11.7-15.8-18.2-20.5-13c-1.4,1.5-1.4,3.9-0.1,25.2c0.8,12.9,1.7,24.1,2,24.9
		C677.3,379.9,682.4,378.6,688.2,374.8L688.2,374.8z"/>
	<path class="st0" d="M409.2,515.5c-16.9-5.9-24.6-11.1-36.5-24.5c-8.4-9.4-14.1-23.6-16.8-41.5c-1.7-11.3-1.8-62.8-0.1-86.7
		c1.4-18.8,5.1-41.2,8.2-48.2c2.2-5.3,8.8-13.6,10.7-13.6c0.7,0,1.3-0.6,1.3-1.4c0-2.4,7.9-8.1,17.9-13c8.6-4.2,10.1-4.6,16.8-4.6
		c8.6,0,12.5,1.4,18.4,6.7c9,8.1,20.1,39.7,17.3,49.3c-2,7-3.4,5.3-9.5-10.9c-3.2-8.4-14.3-26.4-19.3-31c-2.6-2.4-2.6-2.4-7.7,0
		c-7.1,3.3-9.9,7.6-9.9,15.4c0,3.3-0.8,10.5-1.6,16c-2.5,15.5-3.2,95.2-0.9,110.7c2,14.3,5.8,28.8,9.2,35.7
		c4.8,9.5,16.7,17.7,27.4,18.8c4.9,0.5,5.6,0.3,8.1-2.2c3.4-3.4,8.1-17.5,10.3-30.7c0.9-5.1,1.8-16.1,2.2-24.3
		c0.5-13.2,0.4-15.2-1.1-16.4c-1.2-1-5.9-1.4-19.1-1.5c-15.1-0.1-17.7-0.3-19.2-1.8c-1.6-1.7-1.5-1.8,2-3.3c7.1-3,14.4-3.8,33.7-3.9
		c19.9-0.1,27.5,0.9,30.1,4c1.3,1.6,0.1,2.2-7.9,3.8c-4,0.8-6.1,1.9-7.4,3.7c-1.9,2.5-1.9,3.1-0.3,24.7c3.3,44.3-1.9,59.1-24.2,69.4
		c-5.7,2.6-8.3,3.2-15.8,3.5C417.9,518,415.4,517.7,409.2,515.5L409.2,515.5z"/>
	<path class="st0" d="M75,502.5c-1.9-0.7-4.7-1.4-6.1-1.4c-1.4-0.1-3.2-0.9-4.1-1.8c-3.2-4-6.1-18.5-7.3-37.3
		c-0.9-14.6-2.3-27.9-5-46.5c-3.7-26-5.7-51.4-6.2-80.4c-0.5-27.8-0.1-31.7,3.9-37.4c2.3-3.1,8.6-6.7,12-6.7
		c5.9,0,8.5,4.3,15.1,24.1c3.3,9.9,5.3,18.2,7.4,31.7c1.5,10,3.2,18.2,3.8,18.2c0.5-0.1,3.1-2.9,5.6-6.3s9-12,14.4-19.2
		c5.4-7.1,11.8-15.9,14.2-19.6c6.5-10.1,10.6-12.8,14.4-9.3c2.4,2.1,1.3,5.3-5.3,16.1c-3,4.8-7.3,12.8-9.7,17.8
		c-5.4,11.5-10.4,19.7-15.6,26c-4.8,5.8-7.5,9.6-7.5,10.7c0,0.4,3.1,2.5,6.8,4.7c11,6.4,17.8,12,33.7,27.8
		c30,29.7,37.7,41.5,38.7,59.3c0.3,5.5,0.3,5.5-7.4,5.8c-6.9,0.3-8.3,0-13.5-2.7c-10-5.1-23.7-20.8-47.8-55.1
		c-7.4-10.6-14.9-18.9-16.1-17.8c-0.3,0.4-0.1,6.5,0.6,13.7c0.6,7.1,1.2,25,1.3,39.8c0.1,29.7-0.2,31.5-6,34.4
		c-5.6,2.8-8.4,6.3-8.7,10.8C80.5,503.9,79,504,75,502.5L75,502.5z"/>
	<path class="st0" d="M221.9,499.2c-6.6-4.3-7.8-6.2-11-16.9c-4.4-15.2-5.7-23.5-6.4-41.3c-0.3-9.1-1.7-29.8-3.1-46
		c-2.3-26.5-2.6-33.1-2.2-65.9c0.4-41.9-0.4-38.7,10.9-41.1c9.9-2.1,19.8,1.3,23.1,8c0.9,1.9,3.1,6.4,4.9,10
		c1.8,3.6,3.5,8.8,3.9,11.5c0.5,3.2,2.9,9.1,6.8,16.3c9.1,16.8,24.1,49.8,30.1,65.8c4,10.9,10.9,25.4,12,25.4
		c0.5,0,0.6-15.4,0.3-36.7c-0.4-32.5,0.8-74.6,2.4-81.8c0.2-1.1,1.5-3.3,2.8-4.9c2.4-2.9,2.4-2.9,9.7-1c8,2.1,16.1,7.1,19.4,12
		c1.2,1.7,3.3,8.4,4.8,15c2.9,12.4,2.9,12.6,4,78.4c0.1,6.5-1.4,15.2-2.8,17c-1.8,2.2-2.5,7.5-3.5,28.9c-1.1,21.9-1.7,24.1-7.3,24.1
		c-4.4,0-14.5-2.7-18.1-4.8c-1.7-1-3.3-3.3-4.1-5.5c-0.7-2.2-2.2-4.9-3.3-6c-1.1-1.2-2.7-4.3-3.5-6.8c-0.9-2.6-3.7-8.2-6.3-12.5
		c-2.5-4.4-6.8-11.5-9.4-15.9s-8.9-16.4-13.8-26.6c-9.3-19-12.2-23.4-12.2-18.6c0,1.4,0.9,9.2,2,17.3c2.8,20.6,2.6,38.5-0.5,60.3
		c-2.5,17.8-6.5,34.8-9.1,38.9c-0.9,1.4-2.4,2.2-4.2,2.2c-1.5,0-4.5,0.9-6.7,2s-4.2,2-4.5,2S224.4,500.7,221.9,499.2L221.9,499.2z"
		/>
	<path class="st0" d="M554.4,496c-14.3-1.8-27.9-9.1-34.2-18.2c-6.9-10.1-13-25.1-16.4-40.5c-1.6-7.5-1.8-9.7-0.8-10.8
		c1.5-1.8,6.4-2,7.8-0.2c0.5,0.6,3.3,8,6.2,16.2c6.4,18.2,8.4,22.4,15,30.6c8.5,10.7,19.5,16,30.2,14.6c5.2-0.7,8.8-3.3,11.2-8.1
		c1.7-3.4,1.7-4.5,0.7-10.9c-0.6-3.8-3-11.8-5.1-17.5c-2.2-5.8-4-11.2-4-11.9c0-0.7-0.4-1.3-0.9-1.3s-3.3-4.4-6.2-9.7
		c-2.9-5.4-8.7-15.6-12.9-22.8c-21.7-36.8-41.2-77.7-44-92.3c-2.3-11.6,0.8-24.8,6.3-27.3c1.3-0.6,2.7-2,3.2-3.2
		c0.6-1.2,3.9-3.6,7.5-5.4c12.7-6.3,33.9-7.1,44.7-1.7c3.1,1.6,6.2,3.8,6.7,4.9c0.6,1,2.1,2.8,3.4,3.8c1.9,1.6,5.4,6.9,5.7,8.7
		c0,0.3,0.8,1.9,1.7,3.5c3.6,6.8,6.1,19.6,4,20.9c-1.5,0.9-5.1-4.2-6.5-9.5c-4.6-16.4-6.9-20-16.6-24.7c-6.4-3.1-8.9-3.8-15.4-4.1
		c-9.8-0.4-16,1.7-18.8,6.3c-2.6,4.3-2.4,6.1,1.4,11.5c5.5,7.5,9.7,15.2,23.2,41.6c7,13.8,13.3,25.7,14,26.5s4.3,7.4,8.1,14.5
		c3.7,7.2,9.5,18,12.9,24c9.8,17.2,19.5,37.2,22.6,46.4c8.4,24.7,2.5,38.9-18.5,44.7C584.1,496.4,563.7,497.2,554.4,496L554.4,496z"
		/>
</g>
<g>
	<path class="st1" d="M351,276.9c-0.7-1.2-1.9-5-2.6-8.3c-0.8-3.4-2.3-9-3.4-12.6s-2.9-11-4-16.5s-2.9-14-4-19
		c-1.9-9-2.4-10.4-2.4-12c-0.7-1.9-0.9-5.1-1.7-8.5c-0.9-4.3-1.8-6-3-6c-2.4,0-5.2-3.5-4.5-5.8c0.4-1.1,1.6-2.8,2.7-3.8
		c3.1-2.8,5.4-0.8,5.5,4.7c0.1,3.2,1.4,6.9,4.9,13.4c6.3,11.9,18.1,29,22.5,32.6c4.8,4,9.7,3.9,14.4-0.1c4.1-3.6,5.8-2.5,1.8,1.2
		c-5.6,5.2-9.7,6-14.8,2.9c-5.1-3.1-16.3-15-19.5-20.7c-1.7-3-3.5-5.7-4-6c-1-0.6-0.4,3.3,1.2,7.6c0.5,1.4,2,7.5,3.4,13.5
		c2.2,10.2,6,25.2,8.3,33.5c0.6,1.9,1.3,4.7,1.6,6.2c0.5,2.4,1,2.7,3.9,2.4c1.7-0.2,3.9-0.6,4.7-0.9c0.8-0.4,5.3-1.5,10-2.6
		c7.3-1.7,13.3-2.7,35-5.8c1.9-0.2,10.5-0.7,19-1.1c15.4-0.7,15.4-0.7,16.5-6.7c2.5-12.9,16-47.9,23-60.1c0.7-1.2,1.3-2.1,1.8-2.8
		c2.6-3.6,2.6,0-0.1,5.5c-3.8,7.7-7,15.1-8.7,20c-0.9,2.3-1.9,4.7-2.4,5.3c-1,1.2-3.4,9.1-9.1,29.6c-3.7,13.5-3.7,13.5-15.1,13.2
		c-12.8-0.4-47,2.8-56.4,5.2c-3.3,0.9-7.8,1.7-10.1,1.9c-2.3,0.2-4.5,0.6-5,1c-0.5,0.3-2.6,0.8-4.6,1.2
		C352.7,279.1,352,278.9,351,276.9L351,276.9z"/>
	<path class="st1" d="M379.6,231.2c-0.3-0.6,0.1-1.5,0.8-2.1c0.8-0.7,1.7-0.8,2-0.3c0.3,0.6-0.1,1.5-0.8,2.1
		C380.8,231.6,379.9,231.7,379.6,231.2z"/>
	<path class="st1" d="M415.8,228.3c-1.4-1.6-3.5-4.8-4.6-7.3c-2.9-6.6-7.4-22-6.8-23.5c0.2-0.7,0-1.7-0.6-2.3s-0.6-1.2,0-1.6
		c0.6-0.3,1.3-0.2,1.7,0.4c0.3,0.5,0.3,1-0.1,1c-0.3,0-0.2,0.6,0.4,1.3c0.5,0.6,1.8,4.1,2.8,7.7c2.6,9.5,7.3,21.3,9.2,22.8
		c2.2,1.7,3.4,1.5,7.5-1.3c5-3.3,5.6-1.4,0.8,2.4C421.3,231.7,419.1,231.8,415.8,228.3L415.8,228.3z"/>
	<path class="st1" d="M382.8,227.4c-1-1,2.1-6.6,3.2-5.9c1.4,0.9,1.2,1.7-0.8,4.3C384.2,227.1,383.1,227.8,382.8,227.4L382.8,227.4z
		"/>
	<path class="st1" d="M386.6,220.1c-0.3-0.4,0.4-2.6,1.5-4.7c1.1-2.1,2.9-5.9,3.9-8.4s2.6-6.3,3.6-8.5s1.9-4.3,2-4.7
		c0.1-0.5,0.2-0.9,0.3-1c0.1-0.2,0.4-1.8,0.7-3.6c0.2-1.8,0.8-4.2,1.4-5.2c1.5-2.8,1.2-7.6-0.5-9c-2.4-2-1.5-5.4,1.6-5.8
		c3.6-0.4,5.5,2.1,4,5.4c-0.6,1.4-1.1,4.7-1.1,7.5c0,3.3-0.5,5.1-1.4,5.5c-0.8,0.3-1.7,1.5-2.1,2.7c-1.1,3.2-1.2,3.7-1.4,4
		c-0.2,0.1-0.4,1.5-0.6,3.2c-0.4,2.8-9.9,23.5-10.9,23.5C387.3,221,386.9,220.6,386.6,220.1z"/>
	<path class="st1" d="M433.6,220.2c-0.8-1.3,12.2-13.4,13.5-12.6c0.6,0.3,0.7,0.9,0.2,1.3c-0.4,0.4-3.6,3.3-7,6.5
		C437,218.5,433.9,220.7,433.6,220.2z"/>
	<path class="st1" d="M452.6,202.1c-0.7-1.1,17.9-18.1,19.8-18.1c1.7,0,3.6,2.1,3.6,4.1c0,1-1.2,2.7-2.6,3.8c-2.1,1.6-3,1.9-4.1,1
		c-1.9-1.7-5.2,0-11.2,5.6C455.4,201.1,452.9,202.7,452.6,202.1L452.6,202.1z"/>
</g>
<path class="st1" d="M376.4,234.2c0,0,6.8-8.1,11.4-18.2c4.6-10,6.1-7.2,6.1-7.2s-9.1,22.4-17.7,28.2
	C367.6,243,376.4,234.2,376.4,234.2z"/>
<path class="st1" d="M405.4,203.2c0,0-4.5-15.4-4.9-18.8s2.8-2,2.8-2s3.8,16.8,5.4,22.1"/>
<path class="st1" d="M425.3,225.5c0,0,33.6-30.5,36.1-32.7s2.3,1.1,2.3,1.1s-37.6,35-38.1,34.4s-0.6-2.9-0.6-2.9"/>
<path class="st1" d="M469.5,191.4c0,0-3.7,6.5-4.3,7.6c-0.6,1.1,2.7,0.8,2.7,0.8S478.7,182.2,469.5,191.4z"/>
</svg>
